<mxfile host="app.diagrams.net" modified="2022-08-28T23:47:08.422Z" agent="5.0 (Windows NT 10.0; Win64; x64) AppleWebKit/537.36 (KHTML, like Gecko) Chrome/104.0.5112.102 Safari/537.36 Edg/104.0.1293.70" etag="oCtGN6VtSfxe26kn7djN" version="20.2.7" type="github">
  <diagram id="gxHaPOPfgEftcZuhUfg4" name="PÃ¡gina-1">
    <mxGraphModel dx="2031" dy="1123" grid="1" gridSize="10" guides="1" tooltips="1" connect="1" arrows="1" fold="1" page="1" pageScale="1" pageWidth="827" pageHeight="1169" math="0" shadow="0">
      <root>
        <mxCell id="0" />
        <mxCell id="1" parent="0" />
        <mxCell id="dhNmBRZBMMMeY8OzZlI0-1" value="" style="rounded=0;whiteSpace=wrap;html=1;" vertex="1" parent="1">
          <mxGeometry x="40" y="40" width="1120" height="1330" as="geometry" />
        </mxCell>
        <mxCell id="dhNmBRZBMMMeY8OzZlI0-2" value="" style="rounded=0;whiteSpace=wrap;html=1;" vertex="1" parent="1">
          <mxGeometry x="40" y="40" width="1120" height="160" as="geometry" />
        </mxCell>
        <mxCell id="dhNmBRZBMMMeY8OzZlI0-3" value="" style="shape=image;html=1;verticalAlign=top;verticalLabelPosition=bottom;labelBackgroundColor=#ffffff;imageAspect=0;aspect=fixed;image=https://cdn0.iconfinder.com/data/icons/long-shadow-web-icons/512/boostrap-128.png" vertex="1" parent="1">
          <mxGeometry x="60" y="56" width="128" height="128" as="geometry" />
        </mxCell>
        <mxCell id="dhNmBRZBMMMeY8OzZlI0-4" value="Inicio" style="html=1;shadow=0;dashed=0;fillColor=#0085FC;strokeColor=none;fontSize=16;fontColor=#FFFFFF;align=left;spacing=15;" vertex="1" parent="1">
          <mxGeometry x="40" y="200" width="1120" height="60" as="geometry" />
        </mxCell>
        <mxCell id="dhNmBRZBMMMeY8OzZlI0-5" value="Items" style="fillColor=none;strokeColor=none;fontSize=14;fontColor=#ffffff;align=center;" vertex="1" parent="dhNmBRZBMMMeY8OzZlI0-4">
          <mxGeometry width="70" height="40" relative="1" as="geometry">
            <mxPoint x="70" y="10" as="offset" />
          </mxGeometry>
        </mxCell>
        <mxCell id="dhNmBRZBMMMeY8OzZlI0-6" value="Proveedores" style="fillColor=none;strokeColor=none;fontSize=14;fontColor=#FFFFFF;align=center;" vertex="1" parent="dhNmBRZBMMMeY8OzZlI0-4">
          <mxGeometry width="70" height="40" relative="1" as="geometry">
            <mxPoint x="143" y="10" as="offset" />
          </mxGeometry>
        </mxCell>
        <mxCell id="dhNmBRZBMMMeY8OzZlI0-7" value="Empleados" style="fillColor=none;strokeColor=none;fontSize=14;fontColor=#FFFFFF;align=center;spacingRight=0;" vertex="1" parent="dhNmBRZBMMMeY8OzZlI0-4">
          <mxGeometry width="80" height="40" relative="1" as="geometry">
            <mxPoint x="224" y="10" as="offset" />
          </mxGeometry>
        </mxCell>
        <mxCell id="dhNmBRZBMMMeY8OzZlI0-8" value="Historial" style="fillColor=none;strokeColor=none;fontSize=14;fontColor=#FFFFFF;align=center;" vertex="1" parent="dhNmBRZBMMMeY8OzZlI0-4">
          <mxGeometry width="80" height="40" relative="1" as="geometry">
            <mxPoint x="296" y="10" as="offset" />
          </mxGeometry>
        </mxCell>
        <mxCell id="dhNmBRZBMMMeY8OzZlI0-9" value="Empleados" style="rounded=0;whiteSpace=wrap;html=1;fontColor=#000000;fontSize=51;" vertex="1" parent="1">
          <mxGeometry x="60" y="290" width="1060" height="190" as="geometry" />
        </mxCell>
        <mxCell id="dhNmBRZBMMMeY8OzZlI0-10" value="" style="rounded=0;whiteSpace=wrap;html=1;fontSize=51;fontColor=#000000;" vertex="1" parent="1">
          <mxGeometry x="64" y="500" width="1056" height="330" as="geometry" />
        </mxCell>
        <mxCell id="dhNmBRZBMMMeY8OzZlI0-11" value="" style="rounded=0;whiteSpace=wrap;html=1;fontSize=51;fontColor=#000000;" vertex="1" parent="1">
          <mxGeometry x="40" y="950" width="1120" height="190" as="geometry" />
        </mxCell>
        <mxCell id="dhNmBRZBMMMeY8OzZlI0-27" value="" style="shape=table;startSize=30;container=1;collapsible=1;childLayout=tableLayout;fixedRows=1;rowLines=0;fontStyle=1;align=center;resizeLast=1;" vertex="1" parent="1">
          <mxGeometry x="81" y="551" width="1010" height="279" as="geometry" />
        </mxCell>
        <mxCell id="dhNmBRZBMMMeY8OzZlI0-28" value="" style="shape=tableRow;horizontal=0;startSize=0;swimlaneHead=0;swimlaneBody=0;fillColor=none;collapsible=0;dropTarget=0;points=[[0,0.5],[1,0.5]];portConstraint=eastwest;top=0;left=0;right=0;bottom=0;" vertex="1" parent="dhNmBRZBMMMeY8OzZlI0-27">
          <mxGeometry y="30" width="1010" height="30" as="geometry" />
        </mxCell>
        <mxCell id="dhNmBRZBMMMeY8OzZlI0-29" value="Cod" style="shape=partialRectangle;connectable=0;fillColor=none;top=0;left=0;bottom=0;right=0;fontStyle=1;overflow=hidden;" vertex="1" parent="dhNmBRZBMMMeY8OzZlI0-28">
          <mxGeometry width="90" height="30" as="geometry">
            <mxRectangle width="90" height="30" as="alternateBounds" />
          </mxGeometry>
        </mxCell>
        <mxCell id="dhNmBRZBMMMeY8OzZlI0-30" value="Empleado 1" style="shape=partialRectangle;connectable=0;fillColor=none;top=0;left=0;bottom=0;right=0;align=left;spacingLeft=6;fontStyle=5;overflow=hidden;" vertex="1" parent="dhNmBRZBMMMeY8OzZlI0-28">
          <mxGeometry x="90" width="920" height="30" as="geometry">
            <mxRectangle width="920" height="30" as="alternateBounds" />
          </mxGeometry>
        </mxCell>
        <mxCell id="dhNmBRZBMMMeY8OzZlI0-31" value="" style="shape=tableRow;horizontal=0;startSize=0;swimlaneHead=0;swimlaneBody=0;fillColor=none;collapsible=0;dropTarget=0;points=[[0,0.5],[1,0.5]];portConstraint=eastwest;top=0;left=0;right=0;bottom=1;" vertex="1" parent="dhNmBRZBMMMeY8OzZlI0-27">
          <mxGeometry y="60" width="1010" height="109" as="geometry" />
        </mxCell>
        <mxCell id="dhNmBRZBMMMeY8OzZlI0-32" value="Cod" style="shape=partialRectangle;connectable=0;fillColor=none;top=0;left=0;bottom=0;right=0;fontStyle=1;overflow=hidden;" vertex="1" parent="dhNmBRZBMMMeY8OzZlI0-31">
          <mxGeometry width="90" height="109" as="geometry">
            <mxRectangle width="90" height="109" as="alternateBounds" />
          </mxGeometry>
        </mxCell>
        <mxCell id="dhNmBRZBMMMeY8OzZlI0-33" value="Empleado 2" style="shape=partialRectangle;connectable=0;fillColor=none;top=0;left=0;bottom=0;right=0;align=left;spacingLeft=6;fontStyle=5;overflow=hidden;" vertex="1" parent="dhNmBRZBMMMeY8OzZlI0-31">
          <mxGeometry x="90" width="920" height="109" as="geometry">
            <mxRectangle width="920" height="109" as="alternateBounds" />
          </mxGeometry>
        </mxCell>
        <mxCell id="dhNmBRZBMMMeY8OzZlI0-34" value="" style="shape=tableRow;horizontal=0;startSize=0;swimlaneHead=0;swimlaneBody=0;fillColor=none;collapsible=0;dropTarget=0;points=[[0,0.5],[1,0.5]];portConstraint=eastwest;top=0;left=0;right=0;bottom=0;" vertex="1" parent="dhNmBRZBMMMeY8OzZlI0-27">
          <mxGeometry y="169" width="1010" height="30" as="geometry" />
        </mxCell>
        <mxCell id="dhNmBRZBMMMeY8OzZlI0-35" value="" style="shape=partialRectangle;connectable=0;fillColor=none;top=0;left=0;bottom=0;right=0;editable=1;overflow=hidden;" vertex="1" parent="dhNmBRZBMMMeY8OzZlI0-34">
          <mxGeometry width="90" height="30" as="geometry">
            <mxRectangle width="90" height="30" as="alternateBounds" />
          </mxGeometry>
        </mxCell>
        <mxCell id="dhNmBRZBMMMeY8OzZlI0-36" value="" style="shape=partialRectangle;connectable=0;fillColor=none;top=0;left=0;bottom=0;right=0;align=left;spacingLeft=6;overflow=hidden;" vertex="1" parent="dhNmBRZBMMMeY8OzZlI0-34">
          <mxGeometry x="90" width="920" height="30" as="geometry">
            <mxRectangle width="920" height="30" as="alternateBounds" />
          </mxGeometry>
        </mxCell>
        <mxCell id="dhNmBRZBMMMeY8OzZlI0-37" value="" style="shape=tableRow;horizontal=0;startSize=0;swimlaneHead=0;swimlaneBody=0;fillColor=none;collapsible=0;dropTarget=0;points=[[0,0.5],[1,0.5]];portConstraint=eastwest;top=0;left=0;right=0;bottom=0;" vertex="1" parent="dhNmBRZBMMMeY8OzZlI0-27">
          <mxGeometry y="199" width="1010" height="30" as="geometry" />
        </mxCell>
        <mxCell id="dhNmBRZBMMMeY8OzZlI0-38" value="" style="shape=partialRectangle;connectable=0;fillColor=none;top=0;left=0;bottom=0;right=0;editable=1;overflow=hidden;" vertex="1" parent="dhNmBRZBMMMeY8OzZlI0-37">
          <mxGeometry width="90" height="30" as="geometry">
            <mxRectangle width="90" height="30" as="alternateBounds" />
          </mxGeometry>
        </mxCell>
        <mxCell id="dhNmBRZBMMMeY8OzZlI0-39" value="" style="shape=partialRectangle;connectable=0;fillColor=none;top=0;left=0;bottom=0;right=0;align=left;spacingLeft=6;overflow=hidden;" vertex="1" parent="dhNmBRZBMMMeY8OzZlI0-37">
          <mxGeometry x="90" width="920" height="30" as="geometry">
            <mxRectangle width="920" height="30" as="alternateBounds" />
          </mxGeometry>
        </mxCell>
        <mxCell id="dhNmBRZBMMMeY8OzZlI0-46" value="Empleado 4" style="shape=partialRectangle;connectable=0;fillColor=none;top=0;left=0;bottom=0;right=0;align=left;spacingLeft=6;fontStyle=5;overflow=hidden;" vertex="1" parent="1">
          <mxGeometry x="171" y="780" width="920" height="30" as="geometry">
            <mxRectangle width="920" height="30" as="alternateBounds" />
          </mxGeometry>
        </mxCell>
        <mxCell id="dhNmBRZBMMMeY8OzZlI0-47" value="Empleado 3" style="shape=partialRectangle;connectable=0;fillColor=none;top=0;left=0;bottom=0;right=0;align=left;spacingLeft=6;fontStyle=5;overflow=hidden;" vertex="1" parent="1">
          <mxGeometry x="170" y="719" width="920" height="30" as="geometry">
            <mxRectangle width="920" height="30" as="alternateBounds" />
          </mxGeometry>
        </mxCell>
        <mxCell id="dhNmBRZBMMMeY8OzZlI0-48" value="Codigo" style="shape=partialRectangle;connectable=0;fillColor=none;top=0;left=0;bottom=0;right=0;fontStyle=1;overflow=hidden;" vertex="1" parent="1">
          <mxGeometry x="81" y="551" width="90" height="30" as="geometry">
            <mxRectangle width="90" height="30" as="alternateBounds" />
          </mxGeometry>
        </mxCell>
        <mxCell id="dhNmBRZBMMMeY8OzZlI0-49" value="Nombre" style="shape=partialRectangle;connectable=0;fillColor=none;top=0;left=0;bottom=0;right=0;fontStyle=1;overflow=hidden;" vertex="1" parent="1">
          <mxGeometry x="170" y="551" width="90" height="30" as="geometry">
            <mxRectangle width="90" height="30" as="alternateBounds" />
          </mxGeometry>
        </mxCell>
        <mxCell id="dhNmBRZBMMMeY8OzZlI0-50" value="correo" style="shape=partialRectangle;connectable=0;fillColor=none;top=0;left=0;bottom=0;right=0;fontStyle=1;overflow=hidden;" vertex="1" parent="1">
          <mxGeometry x="414" y="551" width="90" height="30" as="geometry">
            <mxRectangle width="90" height="30" as="alternateBounds" />
          </mxGeometry>
        </mxCell>
        <mxCell id="dhNmBRZBMMMeY8OzZlI0-51" value="Documento" style="shape=partialRectangle;connectable=0;fillColor=none;top=0;left=0;bottom=0;right=0;fontStyle=1;overflow=hidden;" vertex="1" parent="1">
          <mxGeometry x="570" y="551" width="90" height="30" as="geometry">
            <mxRectangle width="90" height="30" as="alternateBounds" />
          </mxGeometry>
        </mxCell>
        <mxCell id="dhNmBRZBMMMeY8OzZlI0-52" value="Telefono" style="shape=partialRectangle;connectable=0;fillColor=none;top=0;left=0;bottom=0;right=0;fontStyle=1;overflow=hidden;" vertex="1" parent="1">
          <mxGeometry x="750" y="551" width="90" height="30" as="geometry">
            <mxRectangle width="90" height="30" as="alternateBounds" />
          </mxGeometry>
        </mxCell>
        <mxCell id="dhNmBRZBMMMeY8OzZlI0-53" value="ACCIONES" style="shape=partialRectangle;connectable=0;fillColor=none;top=0;left=0;bottom=0;right=0;fontStyle=1;overflow=hidden;" vertex="1" parent="1">
          <mxGeometry x="950" y="551" width="90" height="30" as="geometry">
            <mxRectangle width="90" height="30" as="alternateBounds" />
          </mxGeometry>
        </mxCell>
        <mxCell id="dhNmBRZBMMMeY8OzZlI0-54" value="Eliminar" style="html=1;shadow=0;dashed=0;shape=mxgraph.bootstrap.rrect;rSize=5;strokeColor=none;strokeWidth=1;fillColor=#DB2843;fontColor=#FFFFFF;whiteSpace=wrap;align=center;verticalAlign=middle;spacingLeft=0;fontStyle=0;fontSize=16;spacing=5;" vertex="1" parent="1">
          <mxGeometry x="900" y="600" width="60" height="30" as="geometry" />
        </mxCell>
        <mxCell id="dhNmBRZBMMMeY8OzZlI0-55" value="Editar" style="html=1;shadow=0;dashed=0;shape=mxgraph.bootstrap.rrect;rSize=5;strokeColor=none;strokeWidth=1;fillColor=#6C767D;fontColor=#FFFFFF;whiteSpace=wrap;align=center;verticalAlign=middle;spacingLeft=0;fontStyle=0;fontSize=16;spacing=5;" vertex="1" parent="1">
          <mxGeometry x="980" y="600" width="70" height="30" as="geometry" />
        </mxCell>
        <mxCell id="dhNmBRZBMMMeY8OzZlI0-56" value="Eliminar" style="html=1;shadow=0;dashed=0;shape=mxgraph.bootstrap.rrect;rSize=5;strokeColor=none;strokeWidth=1;fillColor=#DB2843;fontColor=#FFFFFF;whiteSpace=wrap;align=center;verticalAlign=middle;spacingLeft=0;fontStyle=0;fontSize=16;spacing=5;" vertex="1" parent="1">
          <mxGeometry x="900" y="660" width="60" height="30" as="geometry" />
        </mxCell>
        <mxCell id="dhNmBRZBMMMeY8OzZlI0-57" value="Editar" style="html=1;shadow=0;dashed=0;shape=mxgraph.bootstrap.rrect;rSize=5;strokeColor=none;strokeWidth=1;fillColor=#6C767D;fontColor=#FFFFFF;whiteSpace=wrap;align=center;verticalAlign=middle;spacingLeft=0;fontStyle=0;fontSize=16;spacing=5;" vertex="1" parent="1">
          <mxGeometry x="980" y="660" width="70" height="30" as="geometry" />
        </mxCell>
        <mxCell id="dhNmBRZBMMMeY8OzZlI0-58" value="Eliminar" style="html=1;shadow=0;dashed=0;shape=mxgraph.bootstrap.rrect;rSize=5;strokeColor=none;strokeWidth=1;fillColor=#DB2843;fontColor=#FFFFFF;whiteSpace=wrap;align=center;verticalAlign=middle;spacingLeft=0;fontStyle=0;fontSize=16;spacing=5;" vertex="1" parent="1">
          <mxGeometry x="900" y="730" width="60" height="30" as="geometry" />
        </mxCell>
        <mxCell id="dhNmBRZBMMMeY8OzZlI0-59" value="Editar" style="html=1;shadow=0;dashed=0;shape=mxgraph.bootstrap.rrect;rSize=5;strokeColor=none;strokeWidth=1;fillColor=#6C767D;fontColor=#FFFFFF;whiteSpace=wrap;align=center;verticalAlign=middle;spacingLeft=0;fontStyle=0;fontSize=16;spacing=5;" vertex="1" parent="1">
          <mxGeometry x="980" y="730" width="70" height="30" as="geometry" />
        </mxCell>
        <mxCell id="dhNmBRZBMMMeY8OzZlI0-60" value="Eliminar" style="html=1;shadow=0;dashed=0;shape=mxgraph.bootstrap.rrect;rSize=5;strokeColor=none;strokeWidth=1;fillColor=#DB2843;fontColor=#FFFFFF;whiteSpace=wrap;align=center;verticalAlign=middle;spacingLeft=0;fontStyle=0;fontSize=16;spacing=5;" vertex="1" parent="1">
          <mxGeometry x="900" y="790" width="60" height="30" as="geometry" />
        </mxCell>
        <mxCell id="dhNmBRZBMMMeY8OzZlI0-61" value="Editar" style="html=1;shadow=0;dashed=0;shape=mxgraph.bootstrap.rrect;rSize=5;strokeColor=none;strokeWidth=1;fillColor=#6C767D;fontColor=#FFFFFF;whiteSpace=wrap;align=center;verticalAlign=middle;spacingLeft=0;fontStyle=0;fontSize=16;spacing=5;" vertex="1" parent="1">
          <mxGeometry x="980" y="790" width="70" height="30" as="geometry" />
        </mxCell>
        <mxCell id="dhNmBRZBMMMeY8OzZlI0-62" value="[+] Empleado" style="html=1;shadow=0;dashed=0;shape=mxgraph.bootstrap.rrect;rSize=5;strokeColor=none;strokeWidth=1;fillColor=#33A64C;fontColor=#FFFFFF;whiteSpace=wrap;align=center;verticalAlign=middle;spacingLeft=0;fontStyle=0;fontSize=16;spacing=5;" vertex="1" parent="1">
          <mxGeometry x="537" y="870" width="110" height="40" as="geometry" />
        </mxCell>
        <mxCell id="dhNmBRZBMMMeY8OzZlI0-64" value="Ingrese los datos del empleado" style="html=1;shadow=0;dashed=0;shape=mxgraph.bootstrap.rrect;rSize=5;html=1;strokeColor=#C8C8C8;fillColor=#ffffff;whiteSpace=wrap;verticalAlign=top;align=left;fontSize=18;spacing=15;spacingTop=-5;" vertex="1" parent="1">
          <mxGeometry x="1170" y="570" width="409" height="620" as="geometry" />
        </mxCell>
        <mxCell id="dhNmBRZBMMMeY8OzZlI0-65" value="" style="shape=line;strokeColor=#dddddd;resizeWidth=1;" vertex="1" parent="dhNmBRZBMMMeY8OzZlI0-64">
          <mxGeometry width="400" height="10" relative="1" as="geometry">
            <mxPoint y="50" as="offset" />
          </mxGeometry>
        </mxCell>
        <mxCell id="dhNmBRZBMMMeY8OzZlI0-66" value="" style="html=1;shadow=0;dashed=0;shape=mxgraph.bootstrap.x;strokeColor=#868686;strokeWidth=2;" vertex="1" parent="dhNmBRZBMMMeY8OzZlI0-64">
          <mxGeometry x="1" width="8" height="8" relative="1" as="geometry">
            <mxPoint x="-24" y="20" as="offset" />
          </mxGeometry>
        </mxCell>
        <mxCell id="dhNmBRZBMMMeY8OzZlI0-67" value="Nombre:" style="strokeColor=none;fillColor=none;resizeWidth=1;align=left;verticalAlign=top;spacing=10;fontSize=14;whiteSpace=wrap;html=1;" vertex="1" parent="dhNmBRZBMMMeY8OzZlI0-64">
          <mxGeometry width="400" height="40" relative="1" as="geometry">
            <mxPoint y="60" as="offset" />
          </mxGeometry>
        </mxCell>
        <mxCell id="dhNmBRZBMMMeY8OzZlI0-68" value="" style="html=1;shadow=0;dashed=0;shape=mxgraph.bootstrap.rrect;rSize=5;strokeColor=#CED4DA;fillColor=none;align=left;verticalAlign=middle;spacing=10;fontSize=14;whiteSpace=wrap;html=1;" vertex="1" parent="dhNmBRZBMMMeY8OzZlI0-64">
          <mxGeometry width="380" height="40" relative="1" as="geometry">
            <mxPoint x="10" y="90" as="offset" />
          </mxGeometry>
        </mxCell>
        <mxCell id="dhNmBRZBMMMeY8OzZlI0-71" value="" style="shape=line;strokeColor=#dddddd;resizeWidth=1;" vertex="1" parent="dhNmBRZBMMMeY8OzZlI0-64">
          <mxGeometry width="400" height="10" relative="1" as="geometry">
            <mxPoint x="9" y="513" as="offset" />
          </mxGeometry>
        </mxCell>
        <mxCell id="dhNmBRZBMMMeY8OzZlI0-72" value="Agregar" style="html=1;shadow=0;dashed=0;shape=mxgraph.bootstrap.rrect;rSize=5;fillColor=#0085FC;strokeColor=none;fontColor=#FFFFFF;fontSize=14;" vertex="1" parent="dhNmBRZBMMMeY8OzZlI0-64">
          <mxGeometry x="1" y="1" width="110" height="40" relative="1" as="geometry">
            <mxPoint x="-130" y="-60" as="offset" />
          </mxGeometry>
        </mxCell>
        <mxCell id="dhNmBRZBMMMeY8OzZlI0-73" value="Close" style="html=1;shadow=0;dashed=0;shape=mxgraph.bootstrap.rrect;rSize=5;fillColor=#6C757D;strokeColor=none;fontColor=#FFFFFF;fontSize=14;" vertex="1" parent="dhNmBRZBMMMeY8OzZlI0-64">
          <mxGeometry x="1" y="1" width="70" height="40" relative="1" as="geometry">
            <mxPoint x="-220" y="-60" as="offset" />
          </mxGeometry>
        </mxCell>
        <mxCell id="dhNmBRZBMMMeY8OzZlI0-76" value="Apellido:" style="strokeColor=none;fillColor=none;resizeWidth=1;align=left;verticalAlign=top;spacing=10;fontSize=14;whiteSpace=wrap;html=1;" vertex="1" parent="dhNmBRZBMMMeY8OzZlI0-64">
          <mxGeometry x="-1" y="127.9803921568627" width="400" height="48.62745098039215" as="geometry" />
        </mxCell>
        <mxCell id="dhNmBRZBMMMeY8OzZlI0-77" value="" style="html=1;shadow=0;dashed=0;shape=mxgraph.bootstrap.rrect;rSize=5;strokeColor=#CED4DA;fillColor=none;align=left;verticalAlign=middle;spacing=10;fontSize=14;whiteSpace=wrap;html=1;" vertex="1" parent="dhNmBRZBMMMeY8OzZlI0-64">
          <mxGeometry x="9" y="166.6078431372549" width="380" height="48.62745098039215" as="geometry" />
        </mxCell>
        <mxCell id="dhNmBRZBMMMeY8OzZlI0-78" value="Correo:" style="strokeColor=none;fillColor=none;resizeWidth=1;align=left;verticalAlign=top;spacing=10;fontSize=14;whiteSpace=wrap;html=1;" vertex="1" parent="dhNmBRZBMMMeY8OzZlI0-64">
          <mxGeometry x="-1" y="226.45098039215685" width="400" height="48.62745098039215" as="geometry" />
        </mxCell>
        <mxCell id="dhNmBRZBMMMeY8OzZlI0-79" value="" style="html=1;shadow=0;dashed=0;shape=mxgraph.bootstrap.rrect;rSize=5;strokeColor=#CED4DA;fillColor=none;align=left;verticalAlign=middle;spacing=10;fontSize=14;whiteSpace=wrap;html=1;" vertex="1" parent="dhNmBRZBMMMeY8OzZlI0-64">
          <mxGeometry x="9" y="265.078431372549" width="380" height="48.62745098039215" as="geometry" />
        </mxCell>
        <mxCell id="dhNmBRZBMMMeY8OzZlI0-80" value="Correo:" style="strokeColor=none;fillColor=none;resizeWidth=1;align=left;verticalAlign=top;spacing=10;fontSize=14;whiteSpace=wrap;html=1;" vertex="1" parent="dhNmBRZBMMMeY8OzZlI0-64">
          <mxGeometry y="323.70588235294116" width="400" height="48.62745098039215" as="geometry" />
        </mxCell>
        <mxCell id="dhNmBRZBMMMeY8OzZlI0-81" value="" style="html=1;shadow=0;dashed=0;shape=mxgraph.bootstrap.rrect;rSize=5;strokeColor=#CED4DA;fillColor=none;align=left;verticalAlign=middle;spacing=10;fontSize=14;whiteSpace=wrap;html=1;" vertex="1" parent="dhNmBRZBMMMeY8OzZlI0-64">
          <mxGeometry x="10" y="360.33333333333326" width="380" height="48.62745098039215" as="geometry" />
        </mxCell>
        <mxCell id="dhNmBRZBMMMeY8OzZlI0-82" value="Documento:" style="strokeColor=none;fillColor=none;resizeWidth=1;align=left;verticalAlign=top;spacing=10;fontSize=14;whiteSpace=wrap;html=1;" vertex="1" parent="dhNmBRZBMMMeY8OzZlI0-64">
          <mxGeometry x="-1" y="418.651818796484" width="400" height="48.62745098039215" as="geometry" />
        </mxCell>
        <mxCell id="dhNmBRZBMMMeY8OzZlI0-83" value="" style="html=1;shadow=0;dashed=0;shape=mxgraph.bootstrap.rrect;rSize=5;strokeColor=#CED4DA;fillColor=none;align=left;verticalAlign=middle;spacing=10;fontSize=14;whiteSpace=wrap;html=1;" vertex="1" parent="dhNmBRZBMMMeY8OzZlI0-64">
          <mxGeometry x="9" y="461.41064908722103" width="380" height="48.62745098039215" as="geometry" />
        </mxCell>
      </root>
    </mxGraphModel>
  </diagram>
</mxfile>
